inDegrees=no
num_controls=7
num_derivatives=13
num_iterations=101
num_multipliers=7
num_parameters=0
num_slacks=7
num_states=26
objective=0.471563
objective_accelerations=0.009082
objective_balance=0.000442
objective_effort=0.020454
objective_height=0.436343
objective_ligament=0.005241
solver_duration=1309.290184
status=Solve_Succeeded
success=true
DataType=double
version=3
OpenSimVersion=4.5
endheader
time	/jointset/ground_pelvis/pelvis_tilt/value	/jointset/ground_pelvis/pelvis_tx/value	/jointset/ground_pelvis/pelvis_ty/value	/jointset/hip_r/hip_flexion_r/value	/jointset/hip_r/hip_adduction_r/value	/jointset/hip_r/hip_rotation_r/value	/jointset/back/lumbar_extension/value	/jointset/patellofemoral_r/patellar_flexion_r/value	/jointset/knee_r/knee_flexion_r/value	/jointset/knee_r/knee_adduction_r/value	/jointset/knee_r/knee_rotation_r/value	/jointset/ankle_r/ankle_angle_r/value	/jointset/subtalar_r/subtalar_angle_r/value	/jointset/ground_pelvis/pelvis_tilt/speed	/jointset/ground_pelvis/pelvis_tx/speed	/jointset/ground_pelvis/pelvis_ty/speed	/jointset/hip_r/hip_flexion_r/speed	/jointset/hip_r/hip_adduction_r/speed	/jointset/hip_r/hip_rotation_r/speed	/jointset/back/lumbar_extension/speed	/jointset/patellofemoral_r/patellar_flexion_r/speed	/jointset/knee_r/knee_flexion_r/speed	/jointset/knee_r/knee_adduction_r/speed	/jointset/knee_r/knee_rotation_r/speed	/jointset/ankle_r/ankle_angle_r/speed	/jointset/subtalar_r/subtalar_angle_r/speed	/forceset/tau_hip_flexion_r	/forceset/tau_hip_adduction_r	/forceset/tau_hip_rotation_r	/forceset/tau_knee_flexion_r	/forceset/tau_ankle_angle_r	/forceset/tau_subtalar_angle_r	/forceset/tau_lumbar_extension	lambda_cid13_p0	lambda_cid14_p0	lambda_cid14_p1	lambda_cid14_p2	lambda_cid14_p3	lambda_cid14_p4	lambda_cid14_p5	/jointset/ground_pelvis/pelvis_tilt/accel	/jointset/ground_pelvis/pelvis_tx/accel	/jointset/ground_pelvis/pelvis_ty/accel	/jointset/hip_r/hip_flexion_r/accel	/jointset/hip_r/hip_adduction_r/accel	/jointset/hip_r/hip_rotation_r/accel	/jointset/back/lumbar_extension/accel	/jointset/patellofemoral_r/patellar_flexion_r/accel	/jointset/knee_r/knee_flexion_r/accel	/jointset/knee_r/knee_adduction_r/accel	/jointset/knee_r/knee_rotation_r/accel	/jointset/ankle_r/ankle_angle_r/accel	/jointset/subtalar_r/subtalar_angle_r/accel	gamma_cid13_p0	gamma_cid14_p0	gamma_cid14_p1	gamma_cid14_p2	gamma_cid14_p3	gamma_cid14_p4	gamma_cid14_p5
0	0.005027703439844754	0.1252503416308783	0.9350289718911159	0.1934211968871041	-0.2067060105043932	-0.2514244105232369	-0.2903787966825928	0.2311786273363406	0.2311786273363406	0.08477553226312601	0.1699617194765092	0.089344008118978	0.09069420612669578	0	0	0	0	0	0	0	0	0	0	0	0	0	0.02030972728105928	-0.001755587217064305	-0.0008264161597271437	-0.1942417011010752	0.1272947955945253	-0.06956257467993805	0.06052890117095099	-29.71616213587123	-5.097692480066143	-27.38358338712147	0.5384772534725399	-34.45388214035722	-637.3185726625486	34.38187243286272	3.209946126148304	0.7046836641915454	-0.06658421683937712	-1.836370258195798	-0.2825737379380013	0.8220249672026914	-2.402040408268802	4.791345486956827	4.791345486956827	-0.770633237895492	0.2510525685848291	3.684406612556624	0.7955073925085722	5.860783800653613e-09	-2.437502792558869e-09	-6.838627865870353e-08	4.235809274982143e-08	1.233248799324328e-08	3.419081776301424e-08	-6.969699459706271e-08
0.01	0.005186510572999029	0.1252860085619236	0.935025823092633	0.1933283504478502	-0.2067199075344476	-0.2513826176877654	-0.2904979698302925	0.2314137740947072	0.2314137740947072	0.08473790592101942	0.1699725108089298	0.08952636522200698	0.09073367286246807	0.03154628114183802	0.007177256277553779	-0.0006332528459550619	-0.01852019661652998	-0.002789000755516742	0.008343863365101145	-0.02367796321629473	0.04679223572854578	0.04679223572854781	-0.007433969581966036	0.002124687553387535	0.03637826828415838	0.007853660368121275	0.02349494309485812	-0.02026527927443219	-0.0007427669408919114	-0.2007052162119074	0.1316630011098074	-0.05745306850742962	0.05858879568989939	-29.71915840360733	-2.992332757310241	-21.68745864686194	-0.447693706381129	-36.37455632602651	-638.2894111159878	47.29979988888014	3.094697096933341	0.7308295863145893	-0.06221295271774712	-1.852480537299286	-0.278502625512865	0.8383702176591533	-2.327174329765258	4.587594051930757	4.587594051930961	-0.7160897470499833	0.1881483125978274	3.600564493980008	0.7743367567012127	5.841866846742028e-09	-5.597222099974968e-09	-8.391422857238114e-08	2.98276010979424e-08	1.621973177894166e-08	3.027985284902098e-08	-7.167881550187261e-08
0.02	0.005654326115318098	0.1253947646510998	0.9350162383388418	0.1930517748076475	-0.2067619824482882	-0.2512578255793437	-0.2908492226204463	0.2321097294975847	0.2321097294975846	0.08462867769735255	0.1700035433096608	0.09006971051940513	0.09085048448146904	0.06180168183294738	0.01461783162620081	-0.001287191061677483	-0.03674584018976741	-0.005635576757207593	0.01659985459001807	-0.0464159284908077	0.09216172890218376	0.0921617289021838	-0.01432037631204501	0.004048233662059527	0.07219763887382742	0.01546897664573574	0.026680158908657	-0.03877497133180015	-0.0006591177220568818	-0.2071687313227396	0.1360312066250895	-0.04534356233492124	0.05664869020884782	-29.72791764071559	-0.8457979259197161	-15.99169817902112	-1.425155215072556	-38.44958434440158	-638.7073580725253	60.13142081262211	2.951770036002568	0.7573474784101965	-0.07072129079284901	-1.777459649537286	-0.2940887871728232	0.804450539165848	-2.214040819912451	4.50679697597527	4.506796975974463	-0.661120667518079	0.2108242796417202	3.57262707365876	0.7478385744072115	5.822949892830444e-09	-8.756941407391065e-09	-9.944217848605875e-08	1.729710944606337e-08	2.010697556464004e-08	2.636888793502772e-08	-7.36606364066825e-08
0.03	0.006418998264543847	0.1255777899949634	0.9350000016724622	0.192595402168771	-0.2068323423024644	-0.2510515614664157	-0.2914243111654739	0.2332521363093061	0.2332521363093061	0.08445232016518193	0.1700532110011045	0.09096675279334811	0.09104234075550618	0.09099821114407132	0.02188566529145811	-0.001962737972114497	-0.05439114357579156	-0.008398006527617172	0.02459344869742702	-0.06856760965606226	0.1360591254378061	0.1360591254378039	-0.02095736642983548	0.005870156187810599	0.1069426688350065	0.02287025616267875	0.02528790150361597	-0.03650972177865226	-0.0005382767589963213	-0.2026438210644774	0.1267595994214272	-0.04447995171544514	0.05742644878539031	-29.74216116035725	-3.858539003052742	-15.97858140753564	-1.61635561284724	-35.36636425707767	-639.3235760820842	59.75921092426333	2.883413484477382	0.6962695694318252	-0.06635549687297182	-1.737434369086871	-0.2615684559738803	0.7878914471930066	-2.21060613603794	4.292133627196214	4.292133627196414	-0.6659360073983421	0.1656082828290787	3.385219726884128	0.7314559101554453	9.203467636751003e-09	-9.662003172921675e-09	-1.227288198313523e-07	3.038960578033948e-08	2.114722858348199e-08	5.486204875424905e-09	-9.097755071911582e-08
0.04	0.007471599528042902	0.1258304473272492	0.9349769327158374	0.1919667027588439	-0.2069291761311446	-0.2507671458922806	-0.2922198913963952	0.2348257016133519	0.2348257016133518	0.08420940316713563	0.1701206443265632	0.09220320112081021	0.09130724647867627	0.1193875046875981	0.02854422931064952	-0.002653649110705239	-0.07121119439989167	-0.01093037165798095	0.03223014683141946	-0.09051426566955632	0.1783934273670485	0.1783934273670486	-0.0276322694871784	0.00760136046505254	0.1400788495776502	0.03007886647232447	0.02389564409857497	-0.03424447222550439	-0.0004174357959358678	-0.1981189108062151	0.1174879922177648	-0.04361634109596908	0.05820420736193289	-29.76144863826147	-6.833462622810118	-15.96736994614476	-1.797512278054625	-32.42817685253816	-639.4309801161987	59.30423076209468	2.790322882483136	0.6354935491970206	-0.07379413642359486	-1.612409137152512	-0.248075859163663	0.7330713444825403	-2.173035789560355	4.194178054699295	4.194178054699303	-0.6687032554285697	0.1926806299398695	3.250857229951554	0.7093047329476232	1.265407681774026e-08	-1.052057715408351e-08	-1.461754341958545e-07	4.401041114525798e-08	2.21287807617702e-08	-1.574641051707708e-08	-1.086106525244898e-07
0.05	0.008803677405132312	0.1261471762777673	0.9349467801507914	0.1911737812707985	-0.2070505076744676	-0.2504076028440519	-0.2932332998223402	0.2368151229468843	0.2368151229468842	0.0839002176386668	0.1702045757035554	0.09376369894076844	0.09164311421060753	0.1468573825333322	0.03475300040044928	-0.003387801386038536	-0.08725812956465222	-0.01333065762864404	0.039665972558934	-0.1120755521184073	0.2192524930646458	0.2192524930646458	-0.0341401504531845	0.009140154130606492	0.1718196106648366	0.0370436037407215	0.02436351897732688	-0.03178012154774131	-0.0003679650302455539	-0.1979867772589255	0.114825279226794	-0.04479092125253407	0.05792977500066996	-29.78532925185343	-7.819305766681195	-16.64119046793218	-1.700268497821033	-31.1861316396769	-639.8766945632694	57.85581538425535	2.699716946876102	0.606289263683227	-0.07486971708068448	-1.583590340040639	-0.235220551058022	0.7469760905468493	-2.133894962393769	3.996016327370493	3.996016327370485	-0.6321446497272379	0.1277744443727578	3.105521912515743	0.6823792803110359	1.112367022148877e-08	-1.340219394785192e-08	-1.368320438356254e-07	2.006865442970014e-08	2.201941367873401e-08	-3.043020188656293e-08	-7.927557395153421e-08
0.06	0.01040533340293063	0.1265245370141458	0.9349089572741937	0.1902238395043249	-0.2071956851945053	-0.2499740739578159	-0.2944595650907429	0.2392059840374089	0.2392059840374088	0.08352789047402984	0.1703025541591051	0.09563557164448129	0.0920470935265278	0.1733031288293683	0.04067058648272092	-0.004187711421071338	-0.1026152500855252	-0.0156995670009227	0.04702731443288605	-0.1330856341611079	0.258681378765465	0.2586813787654649	-0.04026059672081492	0.01041077617654462	0.2023538263285728	0.04370118327013022	0.02483139385607885	-0.0293157708699782	-0.0003184942645553641	-0.1978546437116359	0.1121625662358232	-0.045965501409099	0.05765534263940708	-29.81324805616477	-8.770852840497765	-17.31906751667107	-1.590885044028804	-30.07542777221997	-639.8543891752915	56.32663538507403	2.585496572543535	0.577256547691397	-0.08694568836349584	-1.474446208374995	-0.2418005394867773	0.7181745737700398	-2.062794908330011	3.908142055343678	3.908142055343677	-0.5912163157534331	0.1390463060167231	3.009548145262256	0.6478731851499592	9.383536645142918e-09	-1.636899149162481e-08	-1.261080216975129e-07	-5.454683847140897e-09	2.186411315311573e-08	-4.483825329718492e-08	-4.796288778370154e-08
0.07000000000000001	0.01226648203360175	0.1269595163797994	0.9348627811474203	0.1891236778353307	-0.2073645209672115	-0.2494678061029677	-0.295893260826655	0.2419839813816937	0.2419839813816937	0.08309653348998777	0.170412455324505	0.09780660281714691	0.09251592968317281	0.1987738020532741	0.04626618392998368	-0.005059272540455296	-0.1173142387451675	-0.01805857838211526	0.05416794693623567	-0.1535747066942901	0.2966706629927257	0.2966706629927262	-0.04595560224489349	0.01156454143194005	0.2316364923602768	0.0500167815920943	0.02496831250596636	-0.03079606675111115	-0.0001803482068880977	-0.1969890855339018	0.106650686003313	-0.04344463535947594	0.0576322885017773	-29.84466055117836	-10.4344615089834	-16.41709564272724	-1.847132648226916	-28.4162058116282	-640.1700695681917	58.11105806210894	2.504933169067853	0.5418503064862548	-0.08903425704826193	-1.452199755113297	-0.2316157103675701	0.7032644494554066	-2.030142476762203	3.707205685983628	3.70720568598374	-0.5503830585684206	0.1028054246507387	2.855240014717266	0.6159929875622583	9.346457795606429e-09	-1.792551895602919e-08	-1.262622916492668e-07	-1.344649402141682e-08	2.202827122298643e-08	-5.628466411593798e-08	-3.853864997533166e-08
